# AST/ASF file generated using VICON BodyLanguage
# -----------------------------------------------
:version 1.10
:name VICON
:units
  mass 1.0
  length 0.45
  angle deg
:documentation
   .ast/.asf automatically generated from VICON data using
   VICON BodyBuilder and BodyLanguage model FoxedUp or BRILLIANT.MOD
:root
   order TX TY TZ RX RY RZ
   axis XYZ
   position 0 0 0  
   orientation 0 0 0 
:bonedata
  begin
     id 1 
     name lhipjoint
     direction 0.521452 -0.77106 0.36545 
     length 2.0933 
     axis 0 0 0  XYZ
  end
  begin
     id 2 
     name lfemur
     direction 0.34202 -0.939693 0  
     length 6.83441  
     axis 0 0 20  XYZ
    dof rx ry rz
    limits (-160.0 20.0)
           (-70.0 70.0)
           (-60.0 70.0)
  end
  begin
     id 3 
     name ltibia
     direction 0.34202 -0.939693 0   
     length 7.28749   
     axis 0 0 20   XYZ
    dof rx
    limits (-10.0 170.0)
  end
  begin
     id 4 
     name lfoot
     direction 0.100608 -0.276418 0.955757   
     length 1.52195   
     axis -90 7.62852e-016 20   XYZ
    dof rx rz
    limits (-45.0 90.0)
           (-70.0 20.0)
  end
  begin
     id 5 
     name ltoes
     direction 1.53558e-011 -4.21907e-011 1   
     length 0.770459   
     axis -90 7.62852e-016 20   XYZ
    dof rx
    limits (-90.0 20.0)
  end
  begin
     id 6 
     name rhipjoint
     direction -0.488071 -0.788702 0.373812   
     length 2.04648  
     axis 0 0 0  XYZ 
  end
  begin
     id 7 
     name rfemur
     direction -0.34202 -0.939693 0   
     length 6.92583   
     axis 0 0 -20   XYZ
    dof rx ry rz
    limits (-160.0 20.0)
           (-70.0 70.0)
           (-70.0 60.0)
  end
  begin
     id 8 
     name rtibia
     direction -0.34202 -0.939693 0   
     length 7.41043   
     axis 0 0 -20   XYZ
    dof rx
    limits (-10.0 170.0)
 end
 begin
     id 9 
     name rfoot
     direction -0.0784433 -0.215521 0.973343   
     length 1.67708  
     axis -90 -7.62852e-016 -20   XYZ
    dof rx rz
    limits (-45.0 90.0)
           (-20.0 70.0)
  end
  begin
     id 10 
     name rtoes
     direction -1.53551e-011 -4.21842e-011 1   
     length 0.849787   
     axis -90 -7.62852e-016 -20   XYZ
    dof rx
    limits (-90.0 20.0)
  end
  begin
     id 11 
     name lowerback
     direction -0.0122332 0.997575 -0.0685192   
     length 1.98724   
     axis 0 0 0   XYZ
    dof rx ry rz
    limits (-20.0 45.0)
           (-30.0 30.0)
           (-30.0 30.0)
  end
  begin
     id 12 
     name upperback
     direction 0.0182347 0.999724 -0.0148421   
     length 1.99029   
     axis 0 0 0   XYZ
    dof rx ry rz
    limits (-20.0 45.0)
           (-30.0 30.0)
           (-30.0 30.0)
  end
  begin
     id 13 
     name thorax
     direction 0.0242908 0.99956 0.0170184   
     length 1.99573   
     axis 0 0 0   XYZ
    dof rx ry rz
    limits (-20.0 45.0)
           (-30.0 30.0)
           (-30.0 30.0)
  end
  begin
     id 14 
     name lowerneck
     direction 0.0654488 0.985533 0.156338   
     length 1.4285   
     axis 0 0 0   XYZ
    dof rx ry rz
    limits (-20.0 45.0)
           (-30.0 30.0)
           (-30.0 30.0)
  end
  begin
     id 15 
     name upperneck
     direction -0.02953 0.998556 -0.0448842   
     length 1.44709   
     axis 0 0 0   XYZ
    dof rx ry rz
    limits (-20.0 45.0)
           (-30.0 30.0)
           (-30.0 30.0)
  end
  begin
     id 16
     name head
     direction -0.0155588 0.999386 -0.0314063  
     length 1.44689  
     axis 0 0 0   XYZ
    dof rx ry rz
    limits (-20.0 45.0)
           (-30.0 30.0)
           (-30.0 30.0)
  end
  begin
     id 17 
     name lclavicle
     direction 0.968229 0.236071 -0.0824755  
     length 3.60593  
     axis 0 0 0   XYZ
    dof ry rz
    limits (-20.0 10.0)
           (0.0 20.0)
  end
  begin
     id 18 
     name lhumerus
     direction 1 -4.48968e-011 7.8138e-029   
     length 5.06035   
     axis 180 -30 -90   XYZ
    dof rx ry rz
    limits (-60.0 90.0)
           (-90.0 90.0)
           (-90.0 90.0)
  end
  begin
     id 19
     name lradius
     direction 1 -4.48967e-011 9.02887e-028   
     length 3.1478   
     axis 180 -30 -90   XYZ
    dof rx
    limits (-10.0 170.0)
  end
  begin
     id 20
     name lwrist
     direction 1 -4.48961e-011 7.20928e-028   
     length 1.5739   
     axis -5.52449e-016 90 90   XYZ
    dof ry
    limits (-180.0 0.0)
 end
  begin
     id 21 
     name lhand
     direction 1 -4.48972e-011 1.44186e-027   
     length 0.606747   
     axis -9.20027e-016 90 90   XYZ
    dof rx rz
    limits (-90.0 90.0)
           (-45.0 45.0)
  end
  begin
     id 22 
     name lfingers
     direction 1 -4.48943e-011 2.88371e-027   
     length 0.489175   
     axis -1.84005e-015 90 90   XYZ
    dof rx
    limits (0.0 90.0)
  end
  begin
     id 23
     name lthumb
     direction 0.707107 -6.34917e-011 0.707107   
     length 0.70236   
     axis -90 45 2.85299e-015   XYZ
    dof rx rz
    limits (-45.0 45.0)
           (-45.0 45.0)
  end
  begin
     id 24 
     name rclavicle
     direction -0.978165 0.207816 0.0022268   
     length 3.35425  
     axis 0 0 0   XYZ 
    dof ry rz
    limits (-10.0 20.0)
           (-20.0 0.0)
  end
  begin
     id 25 
     name rhumerus
     direction -1 -4.48964e-011 -4.02159e-027  
     length 5.12273   
     axis 180 30 90   XYZ
    dof rx ry rz
    limits (-90.0 60.0)
           (-90.0 90.0)
           (-90.0 90.0)
  end
  begin
     id 26 
     name rradius
     direction -1 -4.48966e-011 1.62746e-027   
     length 3.422   
     axis 180 30 90   XYZ
    dof rx
    limits (-10.0 170.0)
  end
  begin
     id 27 
     name rwrist
     direction -1 -4.4896e-011 7.20928e-028   
     length 1.711   
     axis -5.52449e-016 -90 -90   XYZ
    dof ry
    limits (-180.0 0.0)
  end
  begin
     id 28
     name rhand
     direction -1 -4.48979e-011 1.44186e-027   
     length 0.704599   
     axis -9.20027e-016 -90 -90   XYZ
    dof rx rz
    limits (-90.0 90.0)
           (-45.0 45.0)
  end
  begin
     id 29
     name rfingers
     direction -1 -4.48962e-011 2.88371e-027   
     length 0.568066   
     axis -1.84005e-015 -90 -90   XYZ
    dof rx
    limits (0.0 90.0)
  end
  begin
     id 30
     name rthumb
     direction -0.707107 -6.34949e-011 0.707107   
     length 0.815633   
     axis -90 -45 -2.85299e-015   XYZ
    dof rx rz
    limits (-45.0 45.0)
           (-45.0 45.0)
  end
:hierarchy
  begin
    root lhipjoint rhipjoint lowerback
    lhipjoint lfemur
    lfemur ltibia
    ltibia lfoot
    lfoot ltoes
    rhipjoint rfemur
    rfemur rtibia
    rtibia rfoot
    rfoot rtoes
    lowerback upperback
    upperback thorax
    thorax lowerneck lclavicle rclavicle
    lowerneck upperneck
    upperneck head
    lclavicle lhumerus
    lhumerus lradius
    lradius lwrist
    lwrist lhand lthumb
    lhand lfingers
    rclavicle rhumerus
    rhumerus rradius
    rradius rwrist
    rwrist rhand rthumb
    rhand rfingers
  end

#!OML:ASF Z:\Project 1\Capture day 1\Session 1\Male1.ASF
:FULLY-SPECIFIED
:DEGREES
250
root 13.2325 16.4194 -3.70569 -172.657 -20.1493 180.851
lowerback -8.77103 -1.42841 0.465575
upperback -1.78692 -2.03487 -0.580581
thorax 3.02516 -1.05411 -1.09187
lowerneck -1.82873 -5.89805 -3.05205
upperneck -1.31663 -7.83405 3.83059
head 0.181888 -3.91892 1.62047
rclavicle -1.13239e-014 -3.18055e-015
rhumerus 52.0939 5.02103 -51.9677
rradius 50.2908
rwrist 32.5446
rhand -22.9647 30.8134
rfingers 7.12502
rthumb 3.47721 0.862004
lclavicle -1.13239e-014 -3.18055e-015
lhumerus -23.9857 19.0013 80.7483
lradius 9.43603
lwrist -23.9828
lhand -13.08 48.7552
lfingers 7.12502
lthumb 13.016 78.3291
rfemur -8.41316 -10.653 27.9248
rtibia 15.2428
rfoot -12.6797 -13.007
rtoes 0.637204
lfemur 8.91486 -2.47213 -5.89663
ltibia 22.0321
lfoot 15.8801 10.4032
ltoes 50.7883
251
root 13.2279 16.417 -3.71198 -172.744 -20.1937 180.896
lowerback -8.66896 -1.46309 0.484107
upperback -1.80585 -2.08361 -0.5275
thorax 2.94925 -1.07861 -1.04908
lowerneck -1.34902 -5.89444 -2.8903
upperneck -1.67083 -7.83462 3.51608
head -0.0281114 -3.92404 1.51777
rclavicle -5.86197e-014 -5.1684e-015
rhumerus 52.2728 5.03861 -52.2125
rradius 49.9545
rwrist 33.0765
rhand -23.3624 30.9044
rfingers 7.12502
rthumb 3.09317 0.947101
lclavicle -5.86197e-014 -5.1684e-015
lhumerus -24.1723 18.9844 80.6224
lradius 9.49543
lwrist -23.8315
lhand -12.9408 48.6574
lfingers 7.12502
lthumb 13.1503 78.2227
rfemur -8.3566 -10.6729 27.9581
rtibia 15.3194
rfoot -12.6691 -13.1178
rtoes 0.885002
lfemur 9.04221 -2.4907 -5.82874
ltibia 21.9358
lfoot 16.0404 10.3481
ltoes 50.9847
252
root 13.228 16.4155 -3.71628 -172.762 -20.2316 180.862
lowerback -8.59302 -1.4895 0.400141
upperback -1.78794 -2.10881 -0.544458
thorax 2.92746 -1.09113 -1.02009
lowerneck -1.45226 -5.86941 -2.55203
upperneck -1.52338 -7.80434 3.13669
head 0.00362385 -3.90747 1.33651
rclavicle 2.24297e-014 0
rhumerus 52.5527 4.88746 -52.4926
rradius 49.4917
rwrist 33.3492
rhand -23.8994 31.0221
rfingers 7.12502
rthumb 2.57451 1.05788
lclavicle 2.24297e-014 0
lhumerus -24.1798 18.8641 80.4108
lradius 9.52746
lwrist -23.7084
lhand -12.4607 48.3804
lfingers 7.12502
lthumb 13.613 77.9153
rfemur -8.33838 -10.6087 27.9312
rtibia 15.3989
rfoot -12.7381 -13.1851
rtoes 1.97026
lfemur 9.09941 -2.37754 -5.78406
ltibia 21.8313
lfoot 16.3355 10.1466
ltoes 51.0808
253
root 13.2276 16.4176 -3.72268 -172.684 -20.2699 180.753
lowerback -8.61052 -1.54995 0.200846
upperback -1.75273 -2.16989 -0.540544
thorax 2.97985 -1.12206 -0.912266
lowerneck -1.90473 -5.80822 -2.48085
upperneck -1.13933 -7.71988 3.08793
head 0.189436 -3.86056 1.28801
rclavicle -2.78108e-014 -2.38542e-015
rhumerus 52.8318 4.82536 -52.3677
rradius 49.3811
rwrist 33.1161
rhand -24.2601 30.883
rfingers 7.12502
rthumb 2.22616 0.914848
lclavicle -2.78108e-014 -2.38542e-015
lhumerus -24.1727 18.8922 80.3515
lradius 9.55663
lwrist -23.6334
lhand -12.1941 48.3532
lfingers 7.12502
lthumb 13.8699 77.8707
rfemur -8.3876 -10.5063 27.822
rtibia 15.4693
rfoot -12.8665 -13.2063
rtoes 2.89478
lfemur 9.07797 -2.30305 -5.83298
ltibia 21.7367
lfoot 16.6322 10.0164
ltoes 51.3928
254
root 13.2268 16.4201 -3.73158 -172.631 -20.3548 180.73
lowerback -8.64149 -1.60299 0.0875919
upperback -1.73962 -2.23151 -0.472547
thorax 3.01662 -1.15319 -0.786679
lowerneck -2.11015 -5.81368 -2.74531
upperneck -0.971857 -7.72004 3.25385
head 0.293423 -3.85732 1.37403
rclavicle 4.62268e-014 -2.38542e-015
rhumerus 52.9498 4.83307 -52.0046
rradius 49.5273
rwrist 32.8594
rhand -24.6375 30.6335
rfingers 7.12502
rthumb 1.86171 0.66184
lclavicle 4.62268e-014 -2.38542e-015
lhumerus -24.2074 18.9699 80.4983
lradius 9.50849
lwrist -23.5806
lhand -12.2522 48.5512
lfingers 7.12502
lthumb 13.814 78.0726
rfemur -8.43454 -10.4169 27.8053
rtibia 15.5303
rfoot -12.9745 -13.274
rtoes 3.82717
lfemur 9.05383 -2.3565 -5.8099
ltibia 21.638
lfoot 16.8964 9.85499
ltoes 51.8118
